# xmcd
#
# Track frame offsets: 
#        150
#        13290
#        28174
#        40373
#        53297
#        65897
#        78883
#        91482
#        103814
#        116292
#        127904
#        139644
#
# Disc length: 2017 seconds
#
# Revision: 2
# Processed by: cddbd v1.5.2PL0 Copyright (c) Steve Scherf et al.
# Submitted via: ExactAudioCopyFreeDBPlugin 1.0
#
DISCID=9b07df0c
DTITLE=Memphis Minnie - Night Time Blues
DYEAR=1900
DGENRE=
TTITLE0=Frisco Town
TTITLE1=Bumble Bee
TTITLE2=I'm Talking About You
TTITLE3=Joe Louis Strut
TTITLE4=Moonshine
TTITLE5=My Baby Don't Want Me No More
TTITLE6=Boy Friend Blues
TTITLE7=Nothing In Rambling
TTITLE8=Me And My Chauffeur Blues
TTITLE9=In My Girlish Days
TTITLE10=I'm Not A Bad Gal
TTITLE11=Looking The World Over
EXTD=
EXTT0=
EXTT1=
EXTT2=
EXTT3=
EXTT4=
EXTT5=
EXTT6=
EXTT7=
EXTT8=
EXTT9=
EXTT10=
EXTT11=
PLAYORDER=
